<svg width="1080" height="1350" viewBox="0 0 1080 1350" fill="none" xmlns="http://www.w3.org/2000/svg">
  <defs>
    <linearGradient id="bg" x1="110" y1="90" x2="980" y2="1260" gradientUnits="userSpaceOnUse">
      <stop offset="0" stop-color="#F3E7D4"/>
      <stop offset="0.45" stop-color="#D9B58B"/>
      <stop offset="1" stop-color="#7A4D2A"/>
    </linearGradient>
    <radialGradient id="glow1" cx="0" cy="0" r="1" gradientUnits="userSpaceOnUse" gradientTransform="translate(210 220) rotate(90) scale(220 220)">
      <stop offset="0" stop-color="#FFF4E6" stop-opacity="0.95"/>
      <stop offset="1" stop-color="#FFF4E6" stop-opacity="0"/>
    </radialGradient>
    <radialGradient id="glow2" cx="0" cy="0" r="1" gradientUnits="userSpaceOnUse" gradientTransform="translate(840 1090) rotate(90) scale(300 300)">
      <stop offset="0" stop-color="#2E1C12" stop-opacity="0.35"/>
      <stop offset="1" stop-color="#2E1C12" stop-opacity="0"/>
    </radialGradient>
    <linearGradient id="card" x1="260" y1="340" x2="820" y2="1060" gradientUnits="userSpaceOnUse">
      <stop offset="0" stop-color="#FFF7ED" stop-opacity="0.92"/>
      <stop offset="1" stop-color="#F6E2C7" stop-opacity="0.72"/>
    </linearGradient>
    <linearGradient id="jar" x1="420" y1="580" x2="660" y2="1030" gradientUnits="userSpaceOnUse">
      <stop offset="0" stop-color="#8F5A31"/>
      <stop offset="0.55" stop-color="#5D381F"/>
      <stop offset="1" stop-color="#3B2214"/>
    </linearGradient>
    <linearGradient id="jarTop" x1="410" y1="485" x2="670" y2="635" gradientUnits="userSpaceOnUse">
      <stop offset="0" stop-color="#C58B54"/>
      <stop offset="1" stop-color="#85512A"/>
    </linearGradient>
    <clipPath id="logoClip">
      <circle cx="58" cy="58" r="40"/>
    </clipPath>
    <filter id="shadow" x="240" y="280" width="600" height="760" filterUnits="userSpaceOnUse" color-interpolation-filters="sRGB">
      <feDropShadow dx="0" dy="28" stdDeviation="28" flood-color="#3B2214" flood-opacity="0.22"/>
    </filter>
  </defs>

  <rect width="1080" height="1350" fill="url(#bg)"/>
  <circle cx="210" cy="220" r="220" fill="url(#glow1)"/>
  <circle cx="840" cy="1090" r="300" fill="url(#glow2)"/>
  <path d="M0 1040C160 980 240 1020 360 1080C520 1160 650 1180 820 1125C935 1090 1010 1015 1080 985V1350H0V1040Z" fill="#2D1B12" fill-opacity="0.18"/>

  <g opacity="0.25">
    <circle cx="115" cy="1180" r="10" fill="#FFF6EB"/>
    <circle cx="165" cy="1220" r="6" fill="#FFF6EB"/>
    <circle cx="935" cy="145" r="8" fill="#FFF6EB"/>
    <circle cx="988" cy="188" r="5" fill="#FFF6EB"/>
  </g>

  <g transform="translate(82 86)">
    <rect x="0" y="0" width="916" height="1178" rx="56" fill="url(#card)" fill-opacity="0.25" stroke="#FFF4E6" stroke-opacity="0.38"/>
    <rect x="40" y="40" width="836" height="1098" rx="44" fill="none" stroke="#FFF7EC" stroke-opacity="0.2"/>

    <g transform="translate(52 42)">
      <rect x="0" y="0" width="196" height="54" rx="27" fill="#FFF4E6" fill-opacity="0.75"/>
      <text x="98" y="35" text-anchor="middle" font-family="Inter, Arial, sans-serif" font-size="22" letter-spacing="2.8" fill="#4A2F1B">SOURCE VERDE</text>
    </g>

    <g transform="translate(690 26)">
      <circle cx="58" cy="58" r="48" fill="#FFF4E6" fill-opacity="0.9"/>
      <image href="/logo.jpg" x="18" y="18" width="80" height="80" preserveAspectRatio="xMidYMid slice" clip-path="url(#logoClip)"/>
    </g>

    <text x="92" y="182" font-family="Georgia, 'Times New Roman', serif" font-size="28" letter-spacing="4.5" fill="#5C3A22" opacity="0.9">SOIN PREMIUM</text>
    <text x="92" y="290" font-family="Georgia, 'Times New Roman', serif" font-size="86" font-weight="700" fill="#2F1B12">Graisse</text>
    <text x="92" y="378" font-family="Georgia, 'Times New Roman', serif" font-size="86" font-weight="700" fill="#2F1B12">de chameau</text>
    <text x="94" y="444" font-family="Inter, Arial, sans-serif" font-size="28" fill="#4C3424" opacity="0.95">Un soin riche pour une peau plus souple.</text>

    <g filter="url(#shadow)">
      <ellipse cx="482" cy="944" rx="220" ry="42" fill="#3B2214" fill-opacity="0.25"/>
      <g transform="translate(350 560)">
        <path d="M96 0H168C183 0 195 12 195 27V54C195 69 183 81 168 81H96C81 81 69 69 69 54V27C69 12 81 0 96 0Z" fill="url(#jarTop)"/>
        <path d="M59 76H205C238 76 264 102 264 135V332C264 389 218 435 161 435H103C46 435 0 389 0 332V135C0 102 26 76 59 76Z" fill="url(#jar)"/>
        <path d="M55 115C91 89 154 88 204 121" stroke="#F7D7B0" stroke-opacity="0.28" stroke-width="18" stroke-linecap="round"/>
        <path d="M58 173C99 158 150 158 206 173" stroke="#F7D7B0" stroke-opacity="0.17" stroke-width="14" stroke-linecap="round"/>
        <rect x="56" y="260" width="152" height="84" rx="18" fill="#FFF4E6" fill-opacity="0.09" stroke="#F8E8D6" stroke-opacity="0.24"/>
        <text x="132" y="297" text-anchor="middle" font-family="Georgia, 'Times New Roman', serif" font-size="30" fill="#FFF4E6" letter-spacing="2">NATUREL</text>
        <text x="132" y="328" text-anchor="middle" font-family="Inter, Arial, sans-serif" font-size="18" fill="#F8E8D6" opacity="0.9">Hydratation • Confort</text>
      </g>
      <g transform="translate(256 596)" opacity="0.95">
        <path d="M72 124C40 90 18 55 18 24C18 10 29 0 43 0C58 0 70 11 72 26C74 11 87 0 102 0C116 0 128 10 128 24C128 55 106 90 72 124Z" fill="#F4D7BA"/>
        <path d="M760 120C728 86 706 51 706 20C706 7 716 -4 731 -4C747 -4 759 7 761 22C763 7 775 -4 790 -4C805 -4 816 6 816 20C816 51 794 86 760 120Z" fill="#E9C197"/>
      </g>
    </g>

    <g transform="translate(92 1000)">
      <rect x="0" y="0" width="228" height="58" rx="29" fill="#2F1B12" fill-opacity="0.9"/>
      <text x="114" y="37" text-anchor="middle" font-family="Inter, Arial, sans-serif" font-size="22" fill="#FFF6EB">Soin riche</text>
    </g>
    <g transform="translate(336 1000)">
      <rect x="0" y="0" width="258" height="58" rx="29" fill="#FFF4E6" fill-opacity="0.76"/>
      <text x="129" y="37" text-anchor="middle" font-family="Inter, Arial, sans-serif" font-size="22" fill="#5A3720">Peau plus souple</text>
    </g>
    <g transform="translate(612 1000)">
      <rect x="0" y="0" width="208" height="58" rx="29" fill="#FFF4E6" fill-opacity="0.76"/>
      <text x="104" y="37" text-anchor="middle" font-family="Inter, Arial, sans-serif" font-size="22" fill="#5A3720">Source Verde</text>
    </g>
  </g>
</svg>
